<?xml version="1.0" encoding="UTF-8"?>
<svg width="32" height="32" viewBox="0 0 32 32" fill="none" xmlns="http://www.w3.org/2000/svg">
  <rect width="32" height="32" rx="8" fill="#6DCE87"/>
  <path d="M16 8C11.5817 8 8 11.5817 8 16C8 20.4183 11.5817 24 16 24C20.4183 24 24 20.4183 24 16C24 11.5817 20.4183 8 16 8Z" fill="white"/>
  <path d="M16 12C14.3431 12 13 13.3431 13 15C13 16.6569 14.3431 18 16 18C17.6569 18 19 16.6569 19 15C19 13.3431 17.6569 12 16 12Z" fill="#6DCE87"/>
  <path d="M16 20C15.4477 20 15 20.4477 15 21V22C15 22.5523 15.4477 23 16 23C16.5523 23 17 22.5523 17 22V21C17 20.4477 16.5523 20 16 20Z" fill="#6DCE87"/>
  <path d="M20 15C20 15.5523 20.4477 16 21 16H22C22.5523 16 23 15.5523 23 15C23 14.4477 22.5523 14 22 14H21C20.4477 14 20 14.4477 20 15Z" fill="#6DCE87"/>
  <path d="M12 15C12 15.5523 11.5523 16 11 16H10C9.44772 16 9 15.5523 9 15C9 14.4477 9.44772 14 10 14H11C11.5523 14 12 14.4477 12 15Z" fill="#6DCE87"/>
  <path d="M16 9C16.5523 9 17 9.44772 17 10V11C17 11.5523 16.5523 12 16 12C15.4477 12 15 11.5523 15 11V10C15 9.44772 15.4477 9 16 9Z" fill="#6DCE87"/>
  <path d="M16 20C16.5523 20 17 19.5523 17 19V18C17 17.4477 16.5523 17 16 17C15.4477 17 15 17.4477 15 18V19C15 19.5523 15.4477 20 16 20Z" fill="#6DCE87"/>
</svg> 